<?xml version="1.0" encoding="utf-8"?>
<!-- Generator: Adobe Illustrator 28.3.0, SVG Export Plug-In . SVG Version: 6.00 Build 0)  -->
<svg version="1.1" id="Layer_1" xmlns="http://www.w3.org/2000/svg" xmlns:xlink="http://www.w3.org/1999/xlink" x="0px" y="0px"
	 viewBox="0 0 1080 1080" style="enable-background:new 0 0 1080 1080;" xml:space="preserve">
<style type="text/css">
	.st0{fill:#FFFFFF;stroke:#000000;stroke-width:19;stroke-linecap:square;stroke-miterlimit:1;}
	.st1{stroke:#000000;stroke-width:19;stroke-miterlimit:1;}
	.st2{fill:none;stroke:#000000;stroke-width:10;stroke-linecap:square;stroke-miterlimit:1;}
	.st3{fill:none;stroke:url(#SVGID_1_);stroke-width:10;stroke-linecap:square;stroke-miterlimit:1;}
	.st4{stroke:#000000;stroke-width:2;stroke-miterlimit:1;}
	.st5{stroke:#000000;stroke-width:0.25;stroke-miterlimit:1;}
	.st6{fill:none;stroke:#000000;stroke-width:19;stroke-linecap:square;stroke-miterlimit:1;}
	.st7{fill:none;stroke:#000000;stroke-width:6;stroke-linecap:square;stroke-miterlimit:1;}
	.st8{fill:#6E3897;}
	.st9{fill:#6E3897;stroke:#6E3897;stroke-miterlimit:10;}
	.st10{fill:url(#SVGID_00000074440384856881024040000016244113736822887808_);}
</style>
<path class="st9" d="M524.015,495.992C828.356,547.87,243.694,773.485,199.643,668.64
	c-66.767-158.911,480.779-391.873,654.213-273.019C1006.956,500.54,356.472,798.83,356.472,798.83H764.06L538.149,336.251
	L426.987,554.99h111.162l-198.813,52.232l202.062-395.159L885.97,867.936H203.525l62.937-106c0,0,619.56-259.123,536.839-332.263
	c-88.551-78.296-620.855,95.304-545.293,211.649c36.853,56.743,345.557-59.623,317.956-111.299
	C560.415,500.911,524.015,495.992,524.015,495.992z"/>
</svg>
